<svg width="914" height="278" viewBox="0 0 914 278" fill="none" xmlns="http://www.w3.org/2000/svg">
<path d="M0.0703125 217.5L134.134 58.4163H4.92497V6.88218H204.713V58.4163L73.2637 217.5H209.194V271.275H0.0703125V217.5Z" fill="url(#paint0_linear_34_199)"/>
<path d="M223.341 6.88218H402.963V60.6569H281.597V109.95H396.242V163.725H281.597V217.5H409.685V271.275H223.341V6.88218Z" fill="url(#paint1_linear_34_199)"/>
<path d="M420.845 6.88218H523.166C536.61 6.88218 549.306 8.25144 561.256 10.99C573.455 13.4795 584.036 17.8363 592.998 24.0602C602.21 30.0352 609.43 38.2508 614.658 48.707C620.135 58.9142 622.873 71.7355 622.873 87.1708C622.873 105.843 618.019 121.776 608.309 134.971C598.6 147.916 584.409 156.132 565.738 159.617L632.956 271.275H563.124L507.855 165.592H479.101V271.275H420.845V6.88218ZM479.101 116.299H513.457C518.685 116.299 524.162 116.174 529.888 115.925C535.863 115.427 541.215 114.307 545.945 112.564C550.676 110.573 554.535 107.585 557.522 103.602C560.758 99.6187 562.377 94.0171 562.377 86.7974C562.377 80.0755 561.007 74.723 558.269 70.7397C555.53 66.7563 552.045 63.7688 547.813 61.7772C543.58 59.5366 538.726 58.0428 533.249 57.296C527.772 56.5491 522.419 56.1757 517.191 56.1757H479.101V116.299Z" fill="url(#paint2_linear_34_199)"/>
<path d="M628.265 139.078C628.265 117.917 631.75 98.7473 638.721 81.5693C645.941 64.3912 655.899 49.8273 668.596 37.8773C681.293 25.6784 696.354 16.3425 713.781 9.86965C731.208 3.39678 750.254 0.160339 770.917 0.160339C791.58 0.160339 810.626 3.39678 828.053 9.86965C845.48 16.3425 860.542 25.6784 873.238 37.8773C885.935 49.8273 895.769 64.3912 902.74 81.5693C909.96 98.7473 913.569 117.917 913.569 139.078C913.569 160.24 909.96 179.409 902.74 196.587C895.769 213.765 885.935 228.454 873.238 240.653C860.542 252.603 845.48 261.814 828.053 268.287C810.626 274.76 791.58 277.996 770.917 277.996C750.254 277.996 731.208 274.76 713.781 268.287C696.354 261.814 681.293 252.603 668.596 240.653C655.899 228.454 645.941 213.765 638.721 196.587C631.75 179.409 628.265 160.24 628.265 139.078ZM688.761 139.078C688.761 151.526 690.628 162.978 694.363 173.434C698.346 183.642 703.948 192.604 711.167 200.322C718.387 207.79 726.976 213.641 736.934 217.873C747.142 222.106 758.469 224.222 770.917 224.222C783.365 224.222 794.568 222.106 804.526 217.873C814.733 213.641 823.447 207.79 830.667 200.322C837.886 192.604 843.364 183.642 847.098 173.434C851.081 162.978 853.073 151.526 853.073 139.078C853.073 126.879 851.081 115.552 847.098 105.096C843.364 94.6395 837.886 85.6771 830.667 78.2084C823.447 70.4907 814.733 64.5157 804.526 60.2835C794.568 56.0512 783.365 53.9351 770.917 53.9351C758.469 53.9351 747.142 56.0512 736.934 60.2835C726.976 64.5157 718.387 70.4907 711.167 78.2084C703.948 85.6771 698.346 94.6395 694.363 105.096C690.628 115.552 688.761 126.879 688.761 139.078Z" fill="url(#paint3_linear_34_199)"/>
<defs>
<linearGradient id="paint0_linear_34_199" x1="-13" y1="-8.49927" x2="235.49" y2="636.991" gradientUnits="userSpaceOnUse">
<stop stop-color="#BF2EC2"/>
<stop offset="1" stop-color="#F12BA7"/>
</linearGradient>
<linearGradient id="paint1_linear_34_199" x1="-13" y1="-8.49927" x2="235.49" y2="636.991" gradientUnits="userSpaceOnUse">
<stop stop-color="#BF2EC2"/>
<stop offset="1" stop-color="#F12BA7"/>
</linearGradient>
<linearGradient id="paint2_linear_34_199" x1="-13" y1="-8.49927" x2="235.49" y2="636.991" gradientUnits="userSpaceOnUse">
<stop stop-color="#BF2EC2"/>
<stop offset="1" stop-color="#F12BA7"/>
</linearGradient>
<linearGradient id="paint3_linear_34_199" x1="-13" y1="-8.49927" x2="235.49" y2="636.991" gradientUnits="userSpaceOnUse">
<stop stop-color="#BF2EC2"/>
<stop offset="1" stop-color="#F12BA7"/>
</linearGradient>
</defs>
</svg>
