<svg width="2824" height="1399" viewBox="0 0 2824 1399" fill="none" xmlns="http://www.w3.org/2000/svg">
<g opacity="0.3">
<path d="M458.811 368.053C452.396 356.874 452.396 343.131 458.811 331.952L638.254 19.2188C644.72 7.94964 656.72 1.00002 669.713 1.00002L1038.29 1C1051.28 0.999999 1063.28 7.94962 1069.75 19.2188L1249.19 331.952C1255.6 343.131 1255.6 356.874 1249.19 368.053L1069.75 680.787C1063.28 692.056 1051.28 699.005 1038.29 699.005H669.713C656.72 699.005 644.72 692.056 638.254 680.787L458.811 368.053Z" stroke="#C82EBF" stroke-width="2"/>
<path d="M1416.81 1066.05C1410.4 1054.87 1410.4 1041.13 1416.81 1029.95L1596.25 717.219C1602.72 705.95 1614.72 699 1627.71 699L1996.29 699C2009.28 699 2021.28 705.95 2027.75 717.219L2207.19 1029.95C2213.6 1041.13 2213.6 1054.87 2207.19 1066.05L2027.75 1378.79C2021.28 1390.06 2009.28 1397.01 1996.29 1397.01H1627.71C1614.72 1397.01 1602.72 1390.06 1596.25 1378.79L1416.81 1066.05Z" stroke="#C82EBF" stroke-width="2"/>
<path d="M1605.81 368.053C1599.4 356.874 1599.4 343.131 1605.81 331.952L1785.25 19.2188C1791.72 7.94964 1803.72 1.00002 1816.71 1.00002L2185.29 1C2198.28 0.999999 2210.28 7.94962 2216.75 19.2188L2396.19 331.952C2402.6 343.131 2402.6 356.874 2396.19 368.053L2216.75 680.787C2210.28 692.056 2198.28 699.005 2185.29 699.005H1816.71C1803.72 699.005 1791.72 692.056 1785.25 680.787L1605.81 368.053Z" stroke="#C82EBF" stroke-width="2"/>
<path d="M805.811 717.053C799.396 705.874 799.396 692.131 805.811 680.952L985.254 368.219C991.72 356.95 1003.72 350 1016.71 350L1385.29 350C1398.28 350 1410.28 356.95 1416.75 368.219L1596.19 680.952C1602.6 692.131 1602.6 705.874 1596.19 717.053L1416.75 1029.79C1410.28 1041.06 1398.28 1048.01 1385.29 1048.01H1016.71C1003.72 1048.01 991.72 1041.06 985.254 1029.79L805.811 717.053Z" stroke="#C82EBF" stroke-width="2"/>
<path d="M2027.81 717.053C2021.4 705.874 2021.4 692.131 2027.81 680.952L2207.25 368.219C2213.72 356.95 2225.72 350 2238.71 350L2607.29 350C2620.28 350 2632.28 356.95 2638.75 368.219L2818.19 680.952C2824.6 692.131 2824.6 705.874 2818.19 717.053L2638.75 1029.79C2632.28 1041.06 2620.28 1048.01 2607.29 1048.01H2238.71C2225.72 1048.01 2213.72 1041.06 2207.25 1029.79L2027.81 717.053Z" stroke="#C82EBF" stroke-width="2"/>
<path d="M5.81081 717.053C-0.603599 705.874 -0.603606 692.131 5.8108 680.952L185.254 368.219C191.72 356.95 203.72 350 216.713 350L585.287 350C598.28 350 610.28 356.95 616.746 368.219L796.189 680.952C802.604 692.131 802.604 705.874 796.189 717.053L616.746 1029.79C610.28 1041.06 598.28 1048.01 585.287 1048.01H216.713C203.72 1048.01 191.72 1041.06 185.254 1029.79L5.81081 717.053Z" stroke="#C82EBF" stroke-width="2"/>
<path d="M805.811 368.053C799.396 356.874 799.396 343.131 805.811 331.952L985.254 19.2188C991.72 7.94964 1003.72 1.00002 1016.71 1.00002L1385.29 1C1398.28 0.999999 1410.28 7.94962 1416.75 19.2188L1596.19 331.952C1602.6 343.131 1602.6 356.874 1596.19 368.053L1416.75 680.787C1410.28 692.056 1398.28 699.005 1385.29 699.005H1016.71C1003.72 699.005 991.72 692.056 985.254 680.787L805.811 368.053Z" stroke="#C82EBF" stroke-width="2"/>
<path d="M1152.81 717.053C1146.4 705.874 1146.4 692.131 1152.81 680.952L1332.25 368.219C1338.72 356.95 1350.72 350 1363.71 350L1732.29 350C1745.28 350 1757.28 356.95 1763.75 368.219L1943.19 680.952C1949.6 692.131 1949.6 705.874 1943.19 717.053L1763.75 1029.79C1757.28 1041.06 1745.28 1048.01 1732.29 1048.01H1363.71C1350.72 1048.01 1338.72 1041.06 1332.25 1029.79L1152.81 717.053Z" stroke="#C82EBF" stroke-width="2"/>
</g>
</svg>
